HIERARCHY
ROOT Hips
{
	OFFSET 0.000000 0.000000 0.000000
	CHANNELS 6 Xposition Yposition Zposition Zrotation Yrotation Xrotation 
	JOINT LHipJoint
	{
		OFFSET 0.000000 0.000000 0.000000
		CHANNELS 3 Zrotation Yrotation Xrotation
		JOINT LeftUpLeg
		{
			OFFSET 1.363060 -1.794630 0.839290
			CHANNELS 3 Zrotation Yrotation Xrotation
			JOINT LeftLeg
			{
				OFFSET 2.448110 -6.726130 0.000000
				CHANNELS 3 Zrotation Yrotation Xrotation
				JOINT LeftFoot
				{
					OFFSET 2.562200 -7.039590 0.000000
					CHANNELS 3 Zrotation Yrotation Xrotation
					JOINT LeftToeBase
					{
						OFFSET 0.157640 -0.433110 2.322550
						CHANNELS 3 Zrotation Yrotation Xrotation
						End Site
						{
							OFFSET 0.000000 0.000000 0.000000
						}
					}
				}
			}
		}
	}
	JOINT RHipJoint
	{
		OFFSET 0.000000 0.000000 0.000000
		CHANNELS 3 Zrotation Yrotation Xrotation
		JOINT RightUpLeg
		{
			OFFSET -1.305520 -1.794630 0.839290
			CHANNELS 3 Zrotation Yrotation Xrotation
			JOINT RightLeg
			{
				OFFSET -2.542530 -6.985550 0.000000
				CHANNELS 3 Zrotation Yrotation Xrotation
				JOINT RightFoot
				{
					OFFSET -2.568260 -7.056230 0.000000
					CHANNELS 3 Zrotation Yrotation Xrotation
					JOINT RightToeBase
					{
						OFFSET -0.164730 -0.452590 2.363150
						CHANNELS 3 Zrotation Yrotation Xrotation
						End Site
						{
							OFFSET 0.000000 0.000000 0.000000
						}
					}
				}
			}
		}
	}
	JOINT LowerBack
	{
		OFFSET 0.000000 0.000000 0.000000
		CHANNELS 3 Zrotation Yrotation Xrotation
		JOINT Spine
		{
			OFFSET 0.028270 2.035590 -0.193380
			CHANNELS 3 Zrotation Yrotation Xrotation
			JOINT Spine1
			{
				OFFSET 0.056720 2.048850 -0.042750
				CHANNELS 3 Zrotation Yrotation Xrotation
				JOINT Neck
				{
					OFFSET 0.000000 0.000000 0.000000
					CHANNELS 3 Zrotation Yrotation Xrotation
					JOINT Neck1
					{
						OFFSET -0.054170 1.746240 0.172020
						CHANNELS 3 Zrotation Yrotation Xrotation
						JOINT Head
						{
							OFFSET 0.104070 1.761360 -0.123970
							CHANNELS 3 Zrotation Yrotation Xrotation
							End Site
							{
								OFFSET 0.000000 0.000000 0.000000
							}
						}
					}
				}
				JOINT LeftShoulder
				{
					OFFSET 0.000000 0.000000 0.000000
					CHANNELS 3 Zrotation Yrotation Xrotation
					JOINT LeftArm
					{
						OFFSET 3.362410 1.200890 -0.311210
						CHANNELS 3 Zrotation Yrotation Xrotation
						JOINT LeftForeArm
						{
							OFFSET 4.983000 -0.000000 -0.000000
							CHANNELS 3 Zrotation Yrotation Xrotation
							JOINT LeftHand
							{
								OFFSET 3.483560 -0.000000 -0.000000
								CHANNELS 3 Zrotation Yrotation Xrotation
								JOINT LeftFingerBase
								{
									OFFSET 0.000000 0.000000 0.000000
									CHANNELS 3 Zrotation Yrotation Xrotation
									JOINT LeftHandIndex1
									{
										OFFSET 0.715260 -0.000000 -0.000000
										CHANNELS 3 Zrotation Yrotation Xrotation
										End Site
										{
											OFFSET 0.000000 0.000000 0.000000
										}
									}
								}
								JOINT LThumb
								{
									OFFSET 0.000000 0.000000 0.000000
									CHANNELS 3 Zrotation Yrotation Xrotation
									End Site
									{
										OFFSET 0.000000 0.000000 0.000000
									}
								}
							}
						}
					}
				}
				JOINT RightShoulder
				{
					OFFSET 0.000000 0.000000 0.000000
					CHANNELS 3 Zrotation Yrotation Xrotation
					JOINT RightArm
					{
						OFFSET -3.136600 1.374050 -0.404650
						CHANNELS 3 Zrotation Yrotation Xrotation
						JOINT RightForeArm
						{
							OFFSET -5.241900 -0.000000 -0.000000
							CHANNELS 3 Zrotation Yrotation Xrotation
							JOINT RightHand
							{
								OFFSET -3.444170 -0.000000 -0.000000
								CHANNELS 3 Zrotation Yrotation Xrotation
								JOINT RightFingerBase
								{
									OFFSET 0.000000 0.000000 0.000000
									CHANNELS 3 Zrotation Yrotation Xrotation
									JOINT RightHandIndex1
									{
										OFFSET -0.622530 -0.000000 -0.000000
										CHANNELS 3 Zrotation Yrotation Xrotation
										End Site
										{
											OFFSET 0.000000 0.000000 0.000000
										}
									}
								}
								JOINT RThumb
								{
									OFFSET 0.000000 0.000000 0.000000
									CHANNELS 3 Zrotation Yrotation Xrotation
									End Site
									{
										OFFSET 0.000000 0.000000 0.000000
									}
								}
							}
						}
					}
				}
			}
		}
	}
}
MOTION
Frames: 6
Frame Time: 0.008333
12.354825 17.749439 5.523516 165.770634 -71.115681 -159.913092 -3.855702 -1.773518 0.357625 -18.927347 6.670473 -15.344259 1.204525 10.153762 28.005121 -0.472727 5.196329 -10.537911 0.014000 -0.764000 -2.099600 -0.354006 0.595259 -1.542934 5.265747 2.263002 -24.713341 -4.462800 -13.516595 39.699934 0.400476 -5.608873 -10.537614 -0.087900 -1.912200 5.263100 -12.315017 -2.486771 6.684586 0.473405 -4.129682 -1.901159 7.942200 -2.120287 1.220386 -12.325685 -15.043226 2.728994 12.825113 -23.126235 15.645184 5.555700 -11.798100 10.161800 -6.691892 3.366983 -1.030110 -77.025634 -5.094498 22.385226 11.201444 -24.039315 -2.427029 0.858092 -1.143612 10.047706 -0.662418 38.524671 -1.072700 -7.125000 0.000000 0.000000 -45.799500 63.559300 -22.952500 1.421863 -1.940489 0.444171 82.477281 -2.659837 3.060815 -18.830216 29.616589 -4.888698 -0.031162 -0.224011 -16.005390 -9.401495 22.329133 -3.596500 7.125000 0.000000 0.000000 12.274100 -7.587700 10.803300 
12.357837 17.750342 5.498619 165.904710 -71.130383 -160.106995 -3.852827 -1.757788 0.372527 -18.822362 6.689768 -15.339565 1.217905 10.181327 28.086416 -0.562679 5.573449 -10.458409 0.048700 -1.423700 -3.915400 -0.357993 0.591264 -1.532699 5.146036 2.193684 -24.562803 -4.485226 -13.534241 39.785791 0.418272 -5.679681 -10.409844 -0.050700 -1.452900 3.995800 -12.159807 -2.325096 7.063101 0.502762 -3.964654 -1.947731 8.075330 -2.000219 0.819075 -12.468714 -15.241418 2.832894 12.728723 -23.401557 15.690354 5.490900 -11.936000 10.251000 -6.676576 3.336479 -1.034120 -77.180340 -5.140825 22.938828 11.295760 -24.148304 -2.468375 0.846291 -1.139568 9.849891 -0.325541 38.399749 -0.846400 -7.125000 0.000000 0.000000 -45.300800 63.571400 -22.662100 1.433347 -1.875616 0.444108 81.884442 -2.819911 2.167405 -18.957318 29.734852 -4.943354 -0.036200 -0.222663 -16.106742 -8.699334 22.652304 -3.364200 7.125000 0.000000 0.000000 12.716000 -7.342500 11.275100 
12.351412 17.747330 5.467999 165.773710 -71.071353 -160.050580 -3.855536 -1.741128 0.390563 -18.800680 6.712277 -15.191828 1.201427 10.151934 27.991128 -0.595054 5.698826 -10.375173 0.060000 -1.580400 -4.347500 -0.359133 0.593142 -1.534250 4.667215 2.796435 -24.216672 -4.403585 -13.438535 39.428705 0.475856 -6.053767 -10.543256 -0.107900 -2.118300 5.832600 -12.212879 -2.322594 7.243154 0.560182 -3.986608 -1.953072 8.380130 -2.010506 0.749637 -12.534863 -15.285985 2.737301 12.417707 -23.369468 15.746586 5.361900 -11.921700 10.235800 -6.648029 3.333635 -1.033508 -77.414091 -5.128131 23.152138 11.507529 -24.472695 -2.568659 0.852382 -1.128630 9.431327 -0.618383 38.480796 -1.032100 -7.125000 0.000000 0.000000 -45.676000 63.543900 -22.861100 1.466905 -1.878542 0.436818 80.943368 -2.622561 2.027410 -18.996580 29.770322 -4.958904 -0.032803 -0.217417 -16.637000 -8.090878 22.578368 -3.114400 7.125000 0.000000 0.000000 13.089500 -7.478100 11.589100 
12.339566 17.745523 5.432461 165.474580 -71.180009 -159.826054 -3.842480 -1.737718 0.394631 -18.762110 7.021106 -15.098448 1.191756 10.112710 27.880541 -0.541321 5.423347 -10.183911 0.069900 -1.705800 -4.693200 -0.357973 0.594275 -1.552975 4.141145 3.237432 -23.894661 -4.350268 -13.387707 39.210336 0.522099 -6.423505 -10.923616 -0.275700 -3.377300 9.331100 -12.043941 -2.395516 7.167685 0.526330 -4.051022 -1.880480 8.101444 -2.078255 1.032076 -12.349294 -15.282993 2.663214 12.532059 -23.385491 15.658077 5.379400 -11.909100 10.197900 -6.661206 3.345718 -1.022145 -77.179237 -5.368086 23.369085 11.708131 -24.781055 -2.664427 0.869889 -1.122639 8.852214 -1.001247 38.489060 -1.279800 -7.125000 0.000000 0.000000 -46.047000 63.441100 -22.979000 1.460182 -1.922133 0.450580 80.426215 -2.133552 1.995533 -18.887599 29.681236 -4.920676 -0.028879 -0.216081 -16.486185 -8.592508 22.752230 -3.337900 7.125000 0.000000 0.000000 12.778300 -7.259500 11.354600 
12.331735 17.759377 5.399432 166.104036 -71.442689 -160.358154 -3.823150 -1.725678 0.396894 -18.343164 7.236487 -15.108586 1.185253 10.077715 27.784202 -0.462799 5.026596 -9.964844 0.056400 -1.531800 -4.213400 -0.363954 0.591004 -1.568570 4.227599 3.132402 -23.548108 -4.269381 -13.297839 38.859925 0.593907 -6.841026 -10.925506 -0.248300 -3.206400 8.853800 -11.375771 -2.403474 7.004103 0.486242 -3.996454 -1.810925 7.535854 -2.066287 1.258146 -12.173324 -15.336109 2.776445 12.967188 -23.572813 15.463201 5.525900 -11.982200 10.188200 -6.684156 3.352367 -1.005079 -76.821663 -5.759665 23.909539 11.879922 -25.019246 -2.739089 0.879877 -1.122400 8.323920 -0.987194 38.482470 -1.271400 -7.125000 0.000000 0.000000 -46.036500 63.445600 -22.977300 1.437366 -1.939058 0.479200 80.185087 -1.868740 1.478639 -18.989506 29.845216 -4.985672 -0.025966 -0.221071 -15.899987 -9.900506 23.009980 -3.902800 7.125000 0.000000 0.000000 11.972800 -6.867300 10.697500 
12.328121 17.770822 5.365701 166.277354 -71.615098 -160.454124 -3.821943 -1.710183 0.413488 -18.088583 7.361688 -15.161129 1.183160 10.059320 27.732680 -0.387056 4.660054 -9.826059 0.054200 -1.502800 -4.133300 -0.375113 0.588977 -1.569908 4.093435 2.982103 -23.511138 -4.196903 -13.201816 38.515521 0.698912 -7.327152 -10.436799 -0.103300 -2.072900 5.707100 -11.176622 -2.387240 7.125831 0.571177 -3.976586 -1.812251 7.830095 -2.054919 1.214045 -12.396507 -15.460541 2.693679 12.916579 -23.697354 15.416969 5.504800 -12.038600 10.245100 -6.653194 3.354199 -0.994881 -77.148922 -5.910482 24.423243 12.108753 -25.349409 -2.845008 0.872644 -1.115218 7.863748 -0.573326 38.503458 -0.998800 -7.125000 0.000000 0.000000 -45.674800 63.582900 -22.901300 1.467666 -1.937442 0.477483 79.166197 -1.573080 0.944668 -19.063026 29.917057 -5.018918 -0.021001 -0.218303 -15.950540 -10.300555 23.185118 -4.095500 7.125000 0.000000 0.000000 11.726600 -6.653200 10.517200 
